Coordinates
version=1
nRows=12
nColumns=24
inDegrees=yes

Units are S.I. units (second, meters, Newtons, ...)
Angles are in degrees.

endheader
time	pelvis_tilt	pelvis_list	pelvis_rotation	pelvis_tx	pelvis_ty	pelvis_tz	hip_flexion_r	hip_adduction_r	hip_rotation_r	knee_angle_r	ankle_angle_r	subtalar_angle_r	mtp_angle_r	hip_flexion_l	hip_adduction_l	hip_rotation_l	knee_angle_l	ankle_angle_l	subtalar_angle_l	mtp_angle_l	lumbar_extension	lumbar_bending	lumbar_rotation
      9.39000000	     53.20025256	     -7.53880307	     -1.48979118	     -0.56475267	      1.09786449	     -0.09135970	     20.40711193	    -12.91198789	     -3.22772500	    -70.24078826	    -11.53851879	      5.58403738	      0.00000000	     19.93538518	    -14.53120870	      2.57671569	    -78.83545888	    -16.86866387	     17.28270646	      0.00000000	      0.00000000	      0.00000000	      0.00000000
      9.40000000	     53.26028197	     -7.55336826	     -1.46252121	     -0.56471606	      1.09766257	     -0.09158849	     20.37618321	    -12.94107650	     -3.28497770	    -70.28631919	    -11.51619696	      5.59090419	      0.00000000	     19.96098817	    -14.76589570	      2.97082508	    -80.32219300	    -16.81910299	     17.48936972	      0.00000000	      0.00000000	      0.00000000	      0.00000000
      9.41000000	     53.31119598	     -7.56401974	     -1.43471233	     -0.56467533	      1.09746019	     -0.09182087	     20.35261394	    -12.97073864	     -3.35282544	    -70.32365896	    -11.46921900	      5.57828952	      0.00000000	     20.00023825	    -14.98579575	      3.38378448	    -81.75668452	    -16.74491450	     17.64644239	      0.00000000	      0.00000000	      0.00000000	      0.00000000
      9.42000000	     53.35268888	     -7.57173209	     -1.40640516	     -0.56461965	      1.09726009	     -0.09203787	     20.33611353	    -13.00082030	     -3.42665986	    -70.35485806	    -11.40275631	      5.55541272	      0.00000000	     20.05238483	    -15.19475364	      3.81512096	    -83.13475443	    -16.65542203	     17.75145002	      0.00000000	      0.00000000	      0.00000000	      0.00000000
      9.43000000	     53.38500231	     -7.57825868	     -1.37720482	     -0.56456095	      1.09707144	     -0.09222944	     20.32490063	    -13.03164738	     -3.49785410	    -70.38366736	    -11.32671972	      5.53395047	      0.00000000	     20.11748050	    -15.39683784	      4.26451961	    -84.45287797	    -16.55919582	     17.80665566	      0.00000000	      0.00000000	      0.00000000	      0.00000000
      9.44000000	     53.40984533	     -7.58457307	     -1.34708062	     -0.56451017	      1.09690453	     -0.09241573	     20.31744265	    -13.06194576	     -3.55855905	    -70.41336310	    -11.25207445	      5.52517961	      0.00000000	     20.19622303	    -15.59389608	      4.72978493	    -85.70828424	    -16.46289502	     17.81871551	      0.00000000	      0.00000000	      0.00000000	      0.00000000
      9.45000000	     53.42994357	     -7.59069972	     -1.31652460	     -0.56446198	      1.09675352	     -0.09260825	     20.31389204	    -13.08884781	     -3.60499371	    -70.44535705	    -11.18769983	      5.53740399	      0.00000000	     20.28849328	    -15.78468418	      5.20666647	    -86.89863581	    -16.37045602	     17.79774335	      0.00000000	      0.00000000	      0.00000000	      0.00000000
      9.46000000	     53.44725543	     -7.59646825	     -1.28634641	     -0.56440897	      1.09659758	     -0.09278829	     20.31547172	    -13.11039793	     -3.63672778	    -70.47967919	    -11.13883009	      5.57435170	      0.00000000	     20.39223227	    -15.96657259	      5.69139767	    -88.02111143	    -16.28283429	     17.75588240	      0.00000000	      0.00000000	      0.00000000	      0.00000000
      9.47000000	     53.46194874	     -7.60152109	     -1.25755764	     -0.56435417	      1.09641987	     -0.09294318	     20.32280429	    -13.12745209	     -3.65428261	    -70.51620419	    -11.10701324	      5.63485610	      0.00000000	     20.50372854	    -16.13779475	      6.18337255	    -89.07146401	    -16.19841096	     17.70571277	      0.00000000	      0.00000000	      0.00000000	      0.00000000
      9.48000000	     53.47345760	     -7.60531778	     -1.23114540	     -0.56430709	      1.09622653	     -0.09308231	     20.33498432	    -13.14298216	     -3.65822715	    -70.55499901	    -11.09093625	      5.71368031	      0.00000000	     20.61920416	    -16.29733129	      6.68462487	    -90.04386938	    -16.11400645	     17.65885623	      0.00000000	      0.00000000	      0.00000000	      0.00000000
      9.49000000	     53.48217965	     -7.60746881	     -1.20775427	     -0.56427070	      1.09604500	     -0.09320884	     20.35017105	    -13.15983399	     -3.65039834	    -70.59540481	    -11.08747387	      5.80304626	      0.00000000	     20.73588634	    -16.44307297	      7.19653002	    -90.93213630	    -16.02625718	     17.62492209	      0.00000000	      0.00000000	      0.00000000	      0.00000000
      9.50000000	     53.48911506	     -7.60696981	     -1.18778694	     -0.56423960	      1.09589555	     -0.09332128	     20.36695667	    -13.17923680	     -3.63522744	    -70.63511113	    -11.09267446	      5.89438130	      0.00000000	     20.85075378	    -16.57170865	      7.71767060	    -91.73179675	    -15.93291808	     17.61058821	      0.00000000	      0.00000000	      0.00000000	      0.00000000
